<svg width="99" height="14" viewBox="0 0 99 14" fill="none" xmlns="http://www.w3.org/2000/svg">
<g opacity="0.5">
<path d="M0 14V9.33333C0.601581 9.33333 1.02828 9.12593 1.28011 8.71111C1.53893 8.2963 1.74179 7.55654 1.88868 6.49185C1.97263 5.87654 2.04258 5.23012 2.09854 4.55259C2.16149 3.87506 2.21396 3.18025 2.25593 2.46815C2.2979 1.75605 2.33637 1.03704 2.37135 0.31111H11.1222V9.33333H12.2764V14H9.59032V11.5111H2.68613V14H0ZM3.65146 9.33333H8.26824V2.48889H4.84762C4.82664 2.86913 4.80215 3.24938 4.77417 3.62963C4.75319 4.00988 4.72521 4.38667 4.69023 4.76C4.66225 5.13333 4.63427 5.4963 4.60629 5.84889C4.57831 6.19457 4.54683 6.52642 4.51186 6.84444C4.4489 7.45284 4.36146 7.94716 4.24954 8.32741C4.13762 8.70765 3.93826 9.04296 3.65146 9.33333Z" fill="white"/>
<path d="M19.6325 11.8222C18.4713 11.8222 17.4465 11.5768 16.5581 11.0859C15.6767 10.5881 14.9842 9.90716 14.4806 9.04296C13.9839 8.17185 13.7356 7.1763 13.7356 6.0563C13.7356 4.83259 13.9804 3.7679 14.4701 2.86222C14.9597 1.95654 15.6348 1.25481 16.4952 0.757036C17.3556 0.252345 18.3454 0 19.4646 0C20.6538 0 21.6646 0.276543 22.497 0.829629C23.3294 1.38272 23.945 2.16049 24.3437 3.16296C24.7424 4.16543 24.8823 5.3442 24.7634 6.69926H21.9409V5.66222C21.9409 4.52148 21.7555 3.70222 21.3848 3.20444C21.021 2.69975 20.4229 2.44741 19.5905 2.44741C18.6182 2.44741 17.9012 2.74123 17.4395 3.32889C16.9848 3.90963 16.7575 4.77037 16.7575 5.91111C16.7575 6.95506 16.9848 7.76395 17.4395 8.33778C17.9012 8.90469 18.5762 9.18815 19.4646 9.18815C20.0242 9.18815 20.5034 9.06716 20.9021 8.82518C21.3008 8.58321 21.6051 8.23407 21.815 7.77778L24.669 8.58667C24.2423 9.60988 23.5672 10.4049 22.6439 10.9719C21.7275 11.5388 20.7237 11.8222 19.6325 11.8222ZM15.8761 6.69926V4.60444H23.3889V6.69926H15.8761Z" fill="white"/>
<path d="M32.1271 11.8222C30.952 11.8222 29.9447 11.563 29.1052 11.0444C28.2658 10.5259 27.6223 9.82074 27.1746 8.92889C26.7269 8.03704 26.5031 7.03111 26.5031 5.91111C26.5031 4.77728 26.7339 3.76444 27.1956 2.87259C27.6642 1.98074 28.3218 1.27901 29.1682 0.767407C30.0146 0.255802 31.0149 0 32.1691 0C33.5052 0 34.6244 0.335309 35.5268 1.00593C36.4361 1.66963 37.0167 2.57877 37.2686 3.73333L34.4145 4.48C34.2467 3.89926 33.9529 3.44642 33.5332 3.12148C33.1204 2.79654 32.6518 2.63407 32.1271 2.63407C31.5256 2.63407 31.0324 2.77926 30.6477 3.06963C30.2629 3.35309 29.9796 3.7437 29.7978 4.24148C29.6159 4.73235 29.525 5.28889 29.525 5.91111C29.525 6.88593 29.7418 7.67753 30.1755 8.28593C30.6162 8.88741 31.2667 9.18815 32.1271 9.18815C32.7707 9.18815 33.2603 9.04296 33.5961 8.75259C33.9319 8.46222 34.1837 8.04741 34.3516 7.50815L37.2686 8.10963C36.9468 9.29877 36.3382 10.2148 35.4428 10.8578C34.5475 11.5007 33.4422 11.8222 32.1271 11.8222Z" fill="white"/>
<path d="M49.4612 0.31111V11.5111H46.7331V4.66667L41.6127 11.5111H39.3463V0.31111H42.0744V6.92741L47.2158 0.31111H49.4612Z" fill="white"/>
<path d="M62.4951 0.31111V11.5111H59.767V4.66667L54.6466 11.5111H52.3802V0.31111H55.1083V6.92741L60.2497 0.31111H62.4951Z" fill="white"/>
<path d="M75.529 0.31111V11.5111H72.8009V4.66667L67.6805 11.5111H65.414V0.31111H68.1422V6.92741L73.2836 0.31111H75.529Z" fill="white"/>
<path d="M78.4689 11.5111V0.31111H86.6532V2.94518H81.3229V11.5111H78.4689Z" fill="white"/>
<path d="M88.6332 11.5111V0.31111H91.4872V4.5837H96.146V0.31111H99V11.5111H96.146V7.21778H91.4872V11.5111H88.6332Z" fill="white"/>
</g>
</svg>
