<svg width="93" height="18" viewBox="0 0 93 18" fill="none" xmlns="http://www.w3.org/2000/svg">
<g opacity="0.5">
<path d="M20 14.7586L19.5934 11.3861C19.0784 11.8466 18.5566 12.2055 18.028 12.4629C17.391 12.7608 16.666 12.9098 15.8528 12.9098C14.9041 12.9098 14.1112 12.7067 13.4742 12.3003C12.7966 11.8669 12.3425 11.2439 12.1121 10.4313H17.2555L16.8896 7.54634H11.8885C12.1054 6.78787 12.5458 6.1987 13.2099 5.77883C13.8063 5.39959 14.5585 5.20997 15.4665 5.20997C16.1984 5.20997 16.8896 5.34541 17.5401 5.6163C18.028 5.833 18.5159 6.1242 19.0039 6.4899L18.5566 2.97518C17.3639 2.32506 16.0967 2 14.755 2C12.8034 2 11.2244 2.58917 10.0182 3.76751C8.78488 4.97295 8.16822 6.57793 8.16822 8.58247C8.16822 10.8173 8.8662 12.6457 10.2622 14.0679C11.5633 15.4087 13.298 16.0792 15.4665 16.0792C17.12 16.0792 18.6311 15.639 20 14.7586Z" fill="white"/>
<path d="M4.10656 2C2.7106 2 1.34175 2.37924 0 3.13771L0.406591 6.4899C1.39596 5.6637 2.50053 5.2506 3.7203 5.2506C4.96718 5.2506 5.99043 5.62307 6.79006 6.368C7.58969 7.09938 7.9895 8.0407 7.9895 9.19196C7.9895 10.2755 7.63712 11.1559 6.93237 11.8331C6.22761 12.4967 5.31278 12.8286 4.18788 12.8286C3.13075 12.8286 2.09394 12.5441 1.07746 11.9753L1.50438 15.4291C2.72416 15.8625 3.78807 16.0792 4.69612 16.0792C6.70196 16.0792 8.34188 15.4561 9.61586 14.2101C10.8763 12.9505 11.5065 11.3319 11.5065 9.35449C11.5065 7.29577 10.795 5.55535 9.37191 4.13321C7.93529 2.71107 6.18017 2 4.10656 2Z" fill="white"/>
</g>
<g opacity="0.5">
<path d="M37.6259 10.2181H30.0839C30.2515 11.6378 31.0392 12.3914 32.3632 12.3914C33.0337 12.3914 33.6203 12.1636 34.056 11.7429C34.3074 11.4976 34.4247 11.3048 34.5588 10.8491L37.4751 11.7079C37.0896 12.6193 36.8382 13.0224 36.3689 13.5131C35.4136 14.4946 34.0728 15.0029 32.4135 15.0029C30.771 15.0029 29.4805 14.5122 28.5252 13.5131C27.5363 12.4615 27 10.9718 27 9.23661C27 5.76631 29.1285 3.4703 32.3297 3.4703C34.9443 3.4703 36.7712 4.96008 37.3578 7.57157C37.4919 8.13242 37.5589 8.86855 37.6092 9.86758C37.6092 9.93768 37.6092 10.0428 37.6259 10.2181ZM30.1341 7.79942H34.4415C34.2069 6.6777 33.4862 6.08179 32.3297 6.08179C31.1398 6.08179 30.4191 6.64265 30.1341 7.79942Z" fill="white"/>
<path d="M42.4106 17.7546H38.9747C39.0585 17.001 39.1088 16.1246 39.1088 15.1957V6.64265C39.1088 5.50341 39.0753 4.78481 38.9747 3.89094H42.2765V4.48686C42.2765 4.59202 42.2597 4.73223 42.2597 4.81986C43.2653 3.94352 44.3045 3.57546 45.6955 3.57546C47.1704 3.57546 48.3772 4.03116 49.2487 4.92502C50.137 5.85394 50.5895 7.23856 50.5895 9.00876C50.5895 10.7965 50.0867 12.2512 49.1314 13.2502C48.2766 14.1441 47.0531 14.6349 45.6788 14.6349C44.8911 14.6349 44.0363 14.4596 43.4162 14.1792C42.9804 13.9864 42.729 13.7936 42.2597 13.3729C42.2597 13.5307 42.2597 13.7585 42.2765 14.0039V15.2132C42.2765 16.1947 42.31 17.001 42.4106 17.7546ZM44.9413 11.9883C45.5782 11.9883 46.1481 11.7605 46.5838 11.3223C47.0531 10.8491 47.3213 10.0428 47.3213 9.04382C47.3213 7.25609 46.4162 6.22201 44.8408 6.22201C43.4497 6.22201 42.31 7.50146 42.31 9.0964C42.31 10.7439 43.4329 11.9883 44.9413 11.9883Z" fill="white"/>
<path d="M58.6585 7.6592V7.25609C58.6585 6.4148 58.1724 6.02921 57.0663 6.02921C55.9936 6.02921 55.4238 6.39727 55.1724 7.25609L51.9712 6.71276C52.3064 5.67868 52.6751 5.11782 53.379 4.59202C54.2841 3.926 55.5243 3.59299 57.1501 3.59299C58.3903 3.59299 59.597 3.83836 60.2507 4.20643C61.3233 4.81986 61.7926 5.78384 61.7926 7.36125V12.0935C61.7926 13.1626 61.8261 13.7936 61.9099 14.5823H58.6585V13.776C57.7199 14.5297 56.7813 14.8277 55.407 14.8277C54.1332 14.8277 53.1779 14.5122 52.5075 13.8637C51.9041 13.2853 51.5857 12.444 51.5857 11.48C51.5857 10.3759 52.0047 9.49951 52.8092 8.92113C53.6639 8.29016 54.7869 7.9221 56.2953 7.78189C56.9489 7.71178 57.4517 7.69426 58.6585 7.6592ZM58.6585 10.3934V9.90263C57.1668 9.93768 56.4461 10.0253 55.759 10.2532C55.1556 10.4635 54.7869 10.9017 54.7869 11.4099C54.7869 12.0409 55.2897 12.409 56.1612 12.409C56.8484 12.409 57.6026 12.1461 58.0551 11.7429C58.4406 11.3924 58.6585 10.9192 58.6585 10.3934Z" fill="white"/>
<path d="M65.0134 3.89094V3.52288C65.0134 2.64654 64.9799 1.94547 64.8794 1.12171H68.2984C68.2146 1.84031 68.1644 2.6816 68.1644 3.52288V3.89094H68.7677C69.5052 3.89094 69.8906 3.87342 70.4102 3.80331V6.71276C69.9074 6.64265 69.4716 6.60759 68.8683 6.60759H68.1644V11.0945C68.1644 11.5852 68.2482 11.8306 68.466 11.9883C68.6504 12.111 68.9186 12.1811 69.237 12.1811C69.6728 12.1811 69.9912 12.0935 70.4102 11.8656L70.6616 14.5297C69.9074 14.7751 69.2538 14.8802 68.3487 14.8802C67.209 14.8802 66.4213 14.6874 65.885 14.2668C65.2481 13.7585 65.0134 13.1626 65.0134 11.9708V6.60759H64.3766C63.8402 6.60759 63.4045 6.64265 62.9184 6.71276V3.78578C63.4045 3.85589 63.8235 3.89094 64.4101 3.89094H65.0134Z" fill="white"/>
<path d="M78.4302 7.6592V7.25609C78.4302 6.4148 77.9442 6.02921 76.838 6.02921C75.7653 6.02921 75.1955 6.39727 74.9441 7.25609L71.7429 6.71276C72.0781 5.67868 72.4468 5.11782 73.1508 4.59202C74.0558 3.926 75.2961 3.59299 76.9218 3.59299C78.162 3.59299 79.3688 3.83836 80.0224 4.20643C81.0951 4.81986 81.5643 5.78384 81.5643 7.36125V12.0935C81.5643 13.1626 81.5979 13.7936 81.6817 14.5823H78.4302V13.776C77.4916 14.5297 76.5531 14.8277 75.1787 14.8277C73.905 14.8277 72.9496 14.5122 72.2792 13.8637C71.6759 13.2853 71.3574 12.444 71.3574 11.48C71.3574 10.3759 71.7764 9.49951 72.5809 8.92113C73.4357 8.29016 74.5586 7.9221 76.067 7.78189C76.7207 7.71178 77.2235 7.69426 78.4302 7.6592ZM78.4302 10.3934V9.90263C76.9385 9.93768 76.2179 10.0253 75.5307 10.2532C74.9273 10.4635 74.5586 10.9017 74.5586 11.4099C74.5586 12.0409 75.0614 12.409 75.9329 12.409C76.6201 12.409 77.3743 12.1461 77.8268 11.7429C78.2123 11.3924 78.4302 10.9192 78.4302 10.3934Z" fill="white"/>
<path d="M84.1986 0H87.6009V2.62902H84.1986V0ZM84.1315 3.89094H87.6512C87.5506 4.50438 87.5171 5.27556 87.5171 6.53749V14.4596C87.5171 15.5638 87.2322 16.37 86.6455 16.9309C85.9416 17.6144 84.8187 18 83.4779 18C81.651 18 80.3773 17.4391 79.5728 16.2649L82.355 15.0029C82.5896 15.5813 82.8578 15.7741 83.3606 15.7741C83.9639 15.7741 84.2824 15.4411 84.2824 14.8101L84.2656 6.53749C84.2656 5.31061 84.2321 4.62707 84.1315 3.89094Z" fill="white"/>
<path d="M89.6145 11.0419H93V14.5823H89.6145V11.0419Z" fill="white"/>
</g>
</svg>
