<svg width="198" height="54" viewBox="0 0 198 54" fill="none" xmlns="http://www.w3.org/2000/svg">
<rect width="198" height="54" rx="27" fill="black"/>
<path d="M28.6996 40.4508C25.4214 40.4508 23 38.6254 23 38.6254V34.6766C23 34.6766 25.5332 36.8745 28.6624 36.8745C31.2328 36.8745 32.5366 36.0922 32.5366 34.8256C32.5366 33.41 31.2328 32.5532 28.9604 31.2867C26.4272 29.8711 24.1176 28.6417 24.1176 25.438C24.1176 22.1598 26.986 20.0737 30.4877 20.0737C32.8347 20.0737 34.5483 20.7815 35.4796 21.3402V25.289C34.6228 24.4695 32.9092 23.6499 30.972 23.6499C28.8114 23.6499 27.9173 24.3577 27.9173 25.3635C27.9173 26.5928 28.9604 27.0026 32.2759 28.9398C34.8463 30.4299 36.2991 31.6964 36.2991 34.6021C36.2991 37.5451 34.1012 40.4508 28.6996 40.4508Z" fill="white"/>
<path d="M62.3866 40.4508C54.6754 40.5625 49.013 34.4531 49.1248 27.2261C49.013 19.9992 54.6754 13.8898 62.3866 14.0015C70.0979 13.8898 75.7975 19.9992 75.6858 27.2261C75.7975 34.4531 70.0979 40.5625 62.3866 40.4508ZM62.3866 36.6138C67.9745 36.6138 71.4762 32.5532 71.4762 27.2261C71.4762 21.9363 67.9745 17.8013 62.3866 17.8013C56.8733 17.8013 53.297 21.9363 53.297 27.2261C53.297 32.5532 56.8733 36.6138 62.3866 36.6138Z" fill="white"/>
<path d="M99.0617 40.4508C93.2131 40.4508 88.5192 35.906 88.5192 30.2808C88.5192 24.6557 93.2131 20.0737 99.0617 20.0737C104.91 20.0737 109.604 24.6557 109.604 30.2808C109.604 35.906 104.91 40.4508 99.0617 40.4508ZM99.0617 36.8373C102.861 36.8373 105.73 33.8943 105.73 30.2808C105.73 26.6301 102.861 23.6872 99.0617 23.6872C95.2619 23.6872 92.3935 26.6301 92.3935 30.2808C92.3935 33.8943 95.2619 36.8373 99.0617 36.8373Z" fill="white"/>
<path d="M135.727 40.4508C128.016 40.5625 122.354 34.4531 122.466 27.2261C122.354 19.9992 128.016 13.8898 135.727 14.0015C143.439 13.8898 149.138 19.9992 149.027 27.2261C149.138 34.4531 143.439 40.5625 135.727 40.4508ZM135.727 36.6138C141.315 36.6138 144.817 32.5532 144.817 27.2261C144.817 21.9363 141.315 17.8013 135.727 17.8013C130.214 17.8013 126.638 21.9363 126.638 27.2261C126.638 32.5532 130.214 36.6138 135.727 36.6138Z" fill="white"/>
<path d="M167.56 40.4508C164.281 40.4508 161.86 38.6254 161.86 38.6254V34.6766C161.86 34.6766 164.393 36.8745 167.522 36.8745C170.093 36.8745 171.397 36.0922 171.397 34.8256C171.397 33.41 170.093 32.5532 167.82 31.2867C165.287 29.8711 162.978 28.6417 162.978 25.438C162.978 22.1598 165.846 20.0737 169.348 20.0737C171.695 20.0737 173.408 20.7815 174.34 21.3402V25.289C173.483 24.4695 171.769 23.6499 169.832 23.6499C167.671 23.6499 166.777 24.3577 166.777 25.3635C166.777 26.5928 167.82 27.0026 171.136 28.9398C173.706 30.4299 175.159 31.6964 175.159 34.6021C175.159 37.5451 172.961 40.4508 167.56 40.4508Z" fill="white"/>
</svg>
