<svg width="153" height="27" viewBox="0 0 153 27" fill="none" xmlns="http://www.w3.org/2000/svg">
<path d="M5.69963 26.4508C2.42141 26.4508 0 24.6254 0 24.6254V20.6766C0 20.6766 2.53317 22.8745 5.66238 22.8745C8.2328 22.8745 9.53663 22.0922 9.53663 20.8256C9.53663 19.41 8.2328 18.5532 5.9604 17.2867C3.42723 15.8711 1.11757 14.6417 1.11757 11.438C1.11757 8.1598 3.98601 6.07366 7.48775 6.07366C9.83465 6.07366 11.5483 6.78146 12.4796 7.34025V11.289C11.6228 10.4695 9.90916 9.6499 7.97203 9.6499C5.81139 9.6499 4.91733 10.3577 4.91733 11.3635C4.91733 12.5928 5.9604 13.0026 9.27587 14.9398C11.8463 16.4299 13.2991 17.6964 13.2991 20.6021C13.2991 23.5451 11.1012 26.4508 5.69963 26.4508Z" fill="white"/>
<path d="M39.3866 26.4508C31.6754 26.5625 26.013 20.4531 26.1248 13.2261C26.013 5.99916 31.6754 -0.110247 39.3866 0.00150939C47.0979 -0.110247 52.7975 5.99916 52.6858 13.2261C52.7975 20.4531 47.0979 26.5625 39.3866 26.4508ZM39.3866 22.6138C44.9745 22.6138 48.4762 18.5532 48.4762 13.2261C48.4762 7.93629 44.9745 3.80126 39.3866 3.80126C33.8733 3.80126 30.297 7.93629 30.297 13.2261C30.297 18.5532 33.8733 22.6138 39.3866 22.6138Z" fill="white"/>
<path d="M76.0617 26.4508C70.2131 26.4508 65.5192 21.906 65.5192 16.2808C65.5192 10.6557 70.2131 6.07366 76.0617 6.07366C81.9103 6.07366 86.6041 10.6557 86.6041 16.2808C86.6041 21.906 81.9103 26.4508 76.0617 26.4508ZM76.0617 22.8373C79.8615 22.8373 82.7299 19.8943 82.7299 16.2808C82.7299 12.6301 79.8615 9.68715 76.0617 9.68715C72.2619 9.68715 69.3935 12.6301 69.3935 16.2808C69.3935 19.8943 72.2619 22.8373 76.0617 22.8373Z" fill="white"/>
<path d="M112.727 26.4508C105.016 26.5625 99.3538 20.4531 99.4656 13.2261C99.3538 5.99916 105.016 -0.110247 112.727 0.00150939C120.439 -0.110247 126.138 5.99916 126.027 13.2261C126.138 20.4531 120.439 26.5625 112.727 26.4508ZM112.727 22.6138C118.315 22.6138 121.817 18.5532 121.817 13.2261C121.817 7.93629 118.315 3.80126 112.727 3.80126C107.214 3.80126 103.638 7.93629 103.638 13.2261C103.638 18.5532 107.214 22.6138 112.727 22.6138Z" fill="white"/>
<path d="M144.56 26.4508C141.281 26.4508 138.86 24.6254 138.86 24.6254V20.6766C138.86 20.6766 141.393 22.8745 144.522 22.8745C147.093 22.8745 148.397 22.0922 148.397 20.8256C148.397 19.41 147.093 18.5532 144.82 17.2867C142.287 15.8711 139.978 14.6417 139.978 11.438C139.978 8.1598 142.846 6.07366 146.348 6.07366C148.695 6.07366 150.408 6.78146 151.34 7.34025V11.289C150.483 10.4695 148.769 9.6499 146.832 9.6499C144.671 9.6499 143.777 10.3577 143.777 11.3635C143.777 12.5928 144.82 13.0026 148.136 14.9398C150.706 16.4299 152.159 17.6964 152.159 20.6021C152.159 23.5451 149.961 26.4508 144.56 26.4508Z" fill="white"/>
<path d="M49.8962 14.8326C49.8962 19.6546 46.2478 23.5637 41.7472 23.5637C37.2467 23.5637 33.5983 19.6546 33.5983 14.8326C33.5983 10.0106 37.2467 6.10156 41.7472 6.10156C46.2478 6.10156 49.8962 10.0106 49.8962 14.8326Z" fill="white"/>
<path d="M123.457 14.8326C123.457 19.6546 119.809 23.5637 115.308 23.5637C110.808 23.5637 107.159 19.6546 107.159 14.8326C107.159 10.0106 110.808 6.10156 115.308 6.10156C119.809 6.10156 123.457 10.0106 123.457 14.8326Z" fill="white"/>
</svg>
